<svg width="18" height="17" viewBox="0 0 18 17" fill="none" xmlns="http://www.w3.org/2000/svg">
<path d="M9 16.7344C13.5477 16.7344 17.2344 13.0477 17.2344 8.5C17.2344 3.95228 13.5477 0.265625 9 0.265625C4.45228 0.265625 0.765625 3.95228 0.765625 8.5C0.765625 13.0477 4.45228 16.7344 9 16.7344Z" fill="#EA4C89"/>
<path fill-rule="evenodd" clip-rule="evenodd" d="M8.99976 0C4.30724 0 0.499756 3.80748 0.499756 8.5C0.499756 13.1925 4.30724 17 8.99976 17C13.683 17 17.4998 13.1925 17.4998 8.5C17.4998 3.80748 13.683 0 8.99976 0ZM14.6142 3.91811C15.6283 5.15347 16.2368 6.72993 16.2552 8.43545C16.0155 8.38939 13.6185 7.90075 11.2031 8.205C11.1478 8.08515 11.1017 7.95605 11.0464 7.82701C10.8989 7.47671 10.733 7.11716 10.567 6.77604C13.2405 5.6882 14.4574 4.12093 14.6142 3.91811ZM8.99976 1.2538C10.8436 1.2538 12.5307 1.94523 13.8121 3.07918C13.683 3.26356 12.586 4.72939 10.0046 5.69739C8.81536 3.51247 7.49706 1.72397 7.29423 1.4474C7.83812 1.31833 8.40975 1.2538 8.99976 1.2538ZM5.91139 1.93601C6.10497 2.19414 7.39565 3.99187 8.60334 6.13068C5.21071 7.03417 2.21451 7.01574 1.89184 7.01574C2.36201 4.76627 3.88316 2.89479 5.91139 1.93601ZM1.73511 8.50924C1.73511 8.43545 1.73511 8.36172 1.73511 8.28798C2.04856 8.29717 5.57026 8.34328 9.19334 7.25544C9.40542 7.66105 9.59901 8.0759 9.7834 8.49076C9.69118 8.51843 9.58976 8.54611 9.49759 8.57374C5.75464 9.78143 3.76331 13.0819 3.59737 13.3584C2.44498 12.077 1.73511 10.3715 1.73511 8.50924ZM8.99976 15.7646C7.32186 15.7646 5.77308 15.1931 4.54694 14.2343C4.676 13.9669 6.15103 11.1275 10.2443 9.6985C10.2627 9.68926 10.272 9.68926 10.2904 9.68007C11.3137 12.3259 11.7286 14.5477 11.8392 15.1838C10.9634 15.5618 10.0046 15.7646 8.99976 15.7646ZM13.0469 14.5201C12.9732 14.0775 12.586 11.9572 11.6364 9.34814C13.9136 8.98859 15.9048 9.57865 16.1538 9.66163C15.8403 11.6806 14.6787 13.423 13.0469 14.5201Z" fill="#C32361"/>
</svg>
