<svg width="18" height="17" viewBox="0 0 18 17" fill="none" xmlns="http://www.w3.org/2000/svg">
<g clip-path="url(#clip0_82_9710)">
<path d="M17.5 8.5C17.5 3.80558 13.6944 0 9 0C4.30558 0 0.5 3.80558 0.5 8.5C0.5 12.7425 3.60831 16.2591 7.67188 16.8967V10.957H5.51367V8.5H7.67188V6.62734C7.67188 4.49703 8.9409 3.32031 10.8825 3.32031C11.8121 3.32031 12.7852 3.48633 12.7852 3.48633V5.57812H11.7134C10.6575 5.57812 10.3281 6.23339 10.3281 6.90625V8.5H12.6855L12.3087 10.957H10.3281V16.8967C14.3917 16.2591 17.5 12.7425 17.5 8.5Z" fill="#1877F2"/>
<path d="M12.3087 10.957L12.6855 8.5H10.3281V6.90625C10.3281 6.23405 10.6575 5.57812 11.7134 5.57812H12.7852V3.48633C12.7852 3.48633 11.8125 3.32031 10.8825 3.32031C8.9409 3.32031 7.67188 4.49703 7.67188 6.62734V8.5H5.51367V10.957H7.67188V16.8967C8.55194 17.0344 9.44806 17.0344 10.3281 16.8967V10.957H12.3087Z" fill="white"/>
</g>
<defs>
<clipPath id="clip0_82_9710">
<rect width="17" height="17" fill="white" transform="translate(0.5)"/>
</clipPath>
</defs>
</svg>
