<svg width="18" height="17" viewBox="0 0 18 17" fill="none" xmlns="http://www.w3.org/2000/svg">
<g clip-path="url(#clip0_82_9723)">
<path fill-rule="evenodd" clip-rule="evenodd" d="M8.99992 0.354187C6.98204 0.355234 5.03032 1.06993 3.49376 2.37047C1.9572 3.67102 0.935995 5.47261 0.612741 7.4531C0.289487 9.43359 0.685262 11.4638 1.72931 13.1808C2.77335 14.8978 4.39758 16.1895 6.31156 16.825C6.73381 16.9034 6.89286 16.6417 6.89286 16.4192C6.89286 16.1967 6.88441 15.5515 6.8816 14.8461C4.51697 15.357 4.0173 13.8483 4.0173 13.8483C3.63164 12.8686 3.07427 12.6111 3.07427 12.6111C2.30295 12.0877 3.13198 12.0975 3.13198 12.0975C3.98634 12.1577 4.43534 12.9694 4.43534 12.9694C5.19259 14.2611 6.42416 13.8875 6.90834 13.6691C6.98435 13.1219 7.20533 12.7497 7.44883 12.5383C5.55994 12.3256 3.57534 11.6007 3.57534 8.36219C3.56363 7.52231 3.87708 6.7101 4.45082 6.09359C4.36356 5.88086 4.07219 5.02156 4.53386 3.85437C4.53386 3.85437 5.24748 3.62765 6.87175 4.72067C8.26495 4.34184 9.73489 4.34184 11.1281 4.72067C12.751 3.62765 13.4632 3.85437 13.4632 3.85437C13.9262 5.01876 13.6349 5.87806 13.5476 6.09359C14.1232 6.7102 14.4373 7.52383 14.4245 8.36499C14.4245 11.6105 12.4357 12.3256 10.544 12.5341C10.848 12.7972 11.1196 13.3109 11.1196 14.1002C11.1196 15.231 11.1098 16.1407 11.1098 16.4192C11.1098 16.6445 11.2632 16.9076 11.6939 16.825C13.6081 16.1894 15.2325 14.8975 16.2765 13.1802C17.3205 11.463 17.7161 9.4324 17.3925 7.45172C17.0689 5.47105 16.0472 3.66944 14.5101 2.36912C12.973 1.06879 11.0209 0.35457 9.00273 0.354187H8.99992Z" fill="#191717"/>
<path d="M3.71886 12.4893C3.70056 12.5313 3.633 12.5439 3.57811 12.5145C3.52321 12.4851 3.4824 12.4305 3.5021 12.3872C3.52181 12.3438 3.58796 12.3326 3.64286 12.362C3.69775 12.3914 3.73997 12.4473 3.71886 12.4893Z" fill="#191717"/>
<path d="M4.06346 12.8714C4.03431 12.886 4.00096 12.8901 3.96913 12.8829C3.93729 12.8758 3.90894 12.8578 3.88893 12.8322C3.83404 12.7734 3.82277 12.6923 3.865 12.6559C3.90722 12.6195 3.98323 12.6363 4.03813 12.6951C4.09302 12.7538 4.10569 12.835 4.06346 12.8714Z" fill="#191717"/>
<path d="M4.39817 13.3565C4.3462 13.3928 4.25769 13.3565 4.20852 13.2838C4.19492 13.2708 4.18411 13.2552 4.17673 13.2379C4.16934 13.2206 4.16553 13.2021 4.16553 13.1833C4.16553 13.1645 4.16934 13.1459 4.17673 13.1286C4.18411 13.1114 4.19492 13.0957 4.20852 13.0827C4.2605 13.0478 4.34901 13.0827 4.39817 13.1539C4.44734 13.2252 4.44875 13.3202 4.39817 13.3565Z" fill="#191717"/>
<path d="M4.85267 13.8267C4.80631 13.8784 4.71219 13.8645 4.63493 13.7946C4.55766 13.7248 4.5394 13.6298 4.58575 13.5795C4.63211 13.5292 4.72624 13.5432 4.80631 13.6116C4.88638 13.6801 4.90184 13.7765 4.85267 13.8267Z" fill="#191717"/>
<path d="M5.49003 14.1012C5.46896 14.1669 5.37343 14.1962 5.2779 14.1683C5.18237 14.1403 5.11916 14.0621 5.13742 13.9951C5.15568 13.928 5.25262 13.8973 5.34955 13.928C5.44648 13.9588 5.50829 14.0328 5.49003 14.1012Z" fill="#191717"/>
<path d="M6.18538 14.1489C6.18538 14.2173 6.10671 14.276 6.00556 14.2774C5.90442 14.2788 5.82153 14.2229 5.82153 14.1545C5.82153 14.086 5.9002 14.0274 6.00135 14.026C6.10249 14.0246 6.18538 14.079 6.18538 14.1489Z" fill="#191717"/>
<path d="M6.83292 14.0412C6.84556 14.1096 6.77532 14.1809 6.67418 14.1976C6.57303 14.2144 6.48453 14.1739 6.47188 14.1068C6.45924 14.0398 6.53229 13.9672 6.63063 13.949C6.72896 13.9308 6.82028 13.9727 6.83292 14.0412Z" fill="#191717"/>
</g>
<defs>
<clipPath id="clip0_82_9723">
<rect width="17" height="17" fill="white" transform="translate(0.5)"/>
</clipPath>
</defs>
</svg>
