<svg width="18" height="17" viewBox="0 0 18 17" fill="none" xmlns="http://www.w3.org/2000/svg">
<g clip-path="url(#clip0_82_9750)">
<path d="M17.3344 8.6958C17.3344 8.11799 17.2876 7.53706 17.1876 6.96863H9.17017V10.2418H13.7614C13.5709 11.2975 12.9587 12.2313 12.0623 12.8248V14.9486H14.8014C16.4099 13.4682 17.3344 11.2819 17.3344 8.6958Z" fill="#4285F4"/>
<path d="M9.17028 17.0006C11.4628 17.0006 13.3961 16.2479 14.8047 14.9486L12.0656 12.8248C11.3035 13.3432 10.3196 13.6368 9.1734 13.6368C6.95587 13.6368 5.07566 12.1408 4.40103 10.1294H1.57446V12.3188C3.01742 15.1891 5.95642 17.0006 9.17028 17.0006Z" fill="#34A853"/>
<path d="M4.3978 10.1294C4.04174 9.07369 4.04174 7.93057 4.3978 6.8749V4.68549H1.57435C0.36877 7.08729 0.36877 9.91697 1.57435 12.3188L4.3978 10.1294Z" fill="#FBBC04"/>
<path d="M9.17027 3.36434C10.3821 3.3456 11.5533 3.8016 12.431 4.63864L14.8578 2.21185C13.3211 0.768899 11.2816 -0.0244134 9.17027 0.000572805C5.95642 0.000572805 3.01742 1.81207 1.57446 4.68549L4.39791 6.87491C5.06941 4.86039 6.95275 3.36434 9.17027 3.36434Z" fill="#EA4335"/>
</g>
<defs>
<clipPath id="clip0_82_9750">
<rect width="17" height="17" fill="white" transform="translate(0.5)"/>
</clipPath>
</defs>
</svg>
