<svg width="18" height="19" viewBox="0 0 18 19" fill="none" xmlns="http://www.w3.org/2000/svg">
<path d="M12.4356 2H5.56439C2.77187 2 0.5 4.27191 0.5 7.06447V13.9358C0.5 16.7283 2.77187 19.0003 5.56439 19.0003H12.4356C15.2281 19.0003 17.5 16.7283 17.5 13.9358V7.06447C17.5 4.27191 15.2281 2 12.4356 2ZM15.7898 13.9358C15.7898 15.7883 14.2881 17.29 12.4356 17.29H5.56439C3.71194 17.29 2.2102 15.7883 2.2102 13.9358V7.06447C2.2102 5.21196 3.71194 3.71022 5.56439 3.71022H12.4356C14.2881 3.71022 15.7898 5.21196 15.7898 7.06447V13.9358Z" fill="url(#paint0_linear_82_9713)"/>
<path d="M8.99983 6.10327C6.57543 6.10327 4.60303 8.0757 4.60303 10.5001C4.60303 12.9245 6.57543 14.897 8.99983 14.897C11.4242 14.897 13.3966 12.9245 13.3966 10.5001C13.3966 8.07567 11.4242 6.10327 8.99983 6.10327ZM8.99983 13.1868C7.51605 13.1868 6.31323 11.9839 6.31323 10.5001C6.31323 9.01634 7.51608 7.8135 8.99983 7.8135C10.4836 7.8135 11.6864 9.01634 11.6864 10.5001C11.6864 11.9839 10.4836 13.1868 8.99983 13.1868Z" fill="url(#paint1_linear_82_9713)"/>
<path d="M13.4059 7.18986C13.9877 7.18986 14.4594 6.71816 14.4594 6.13628C14.4594 5.55441 13.9877 5.0827 13.4059 5.0827C12.824 5.0827 12.3523 5.55441 12.3523 6.13628C12.3523 6.71816 12.824 7.18986 13.4059 7.18986Z" fill="url(#paint2_linear_82_9713)"/>
<defs>
<linearGradient id="paint0_linear_82_9713" x1="9" y1="18.9508" x2="9" y2="2.13204" gradientUnits="userSpaceOnUse">
<stop stop-color="#E09B3D"/>
<stop offset="0.3" stop-color="#C74C4D"/>
<stop offset="0.6" stop-color="#C21975"/>
<stop offset="1" stop-color="#7024C4"/>
</linearGradient>
<linearGradient id="paint1_linear_82_9713" x1="8.99983" y1="18.9508" x2="8.99983" y2="2.13206" gradientUnits="userSpaceOnUse">
<stop stop-color="#E09B3D"/>
<stop offset="0.3" stop-color="#C74C4D"/>
<stop offset="0.6" stop-color="#C21975"/>
<stop offset="1" stop-color="#7024C4"/>
</linearGradient>
<linearGradient id="paint2_linear_82_9713" x1="13.4059" y1="18.9508" x2="13.4059" y2="2.13206" gradientUnits="userSpaceOnUse">
<stop stop-color="#E09B3D"/>
<stop offset="0.3" stop-color="#C74C4D"/>
<stop offset="0.6" stop-color="#C21975"/>
<stop offset="1" stop-color="#7024C4"/>
</linearGradient>
</defs>
</svg>
