<svg width="18" height="17" viewBox="0 0 18 17" fill="none" xmlns="http://www.w3.org/2000/svg">
<path d="M0.5 8.5C0.5 3.80558 4.30558 0 9 0C13.6944 0 17.5 3.80558 17.5 8.5C17.5 13.1944 13.6944 17 9 17C4.30558 17 0.5 13.1944 0.5 8.5Z" fill="#00B900"/>
<path d="M9.14176 3.96667C6.25176 3.96667 3.90015 5.8611 3.90015 8.18967C3.90015 10.2772 5.76492 12.0255 8.28384 12.3561C8.45456 12.3926 8.68687 12.4678 8.74566 12.6127C8.79851 12.7443 8.78022 12.9504 8.76254 13.0832C8.76254 13.0832 8.70104 13.4505 8.68778 13.5287C8.66497 13.6602 8.58247 14.0432 9.14176 13.8092C9.70125 13.5752 12.1605 12.0446 13.2602 10.7879C14.0196 9.96089 14.3835 9.12162 14.3835 8.18967C14.3835 5.8611 12.0322 3.96667 9.14176 3.96667Z" fill="white"/>
<path d="M7.6845 7.08337C7.62865 7.08337 7.58325 7.13024 7.58325 7.18781V9.52894C7.58325 9.58661 7.62865 9.63337 7.6845 9.63337H8.04877C8.10462 9.63337 8.14992 9.58661 8.14992 9.52894V7.18781C8.14992 7.13024 8.10462 7.08337 8.04877 7.08337H7.6845Z" fill="#00B900"/>
<path d="M10.5935 7.08337H10.2101C10.1513 7.08337 10.1036 7.13024 10.1036 7.18781V8.57868L9.01196 7.12983C9.00945 7.12612 9.00662 7.12262 9.00368 7.11922L9.00295 7.1186C9.00085 7.11623 8.99876 7.11417 8.99656 7.11211C8.99593 7.11149 8.9953 7.11098 8.99457 7.11036C8.99279 7.10871 8.9909 7.10717 8.98891 7.10572C8.98807 7.1049 8.98713 7.10428 8.98618 7.10356C8.9843 7.10233 8.98251 7.10099 8.98063 7.09985C8.97958 7.09913 8.97853 7.09851 8.97738 7.098C8.97549 7.09687 8.97361 7.09573 8.97172 7.09481C8.97057 7.09429 8.96952 7.09367 8.96837 7.09326C8.96637 7.09233 8.96438 7.09141 8.96229 7.09069C8.96103 7.09027 8.95998 7.08986 8.95883 7.08945C8.95673 7.08873 8.95464 7.08801 8.95244 7.08749C8.95128 7.08708 8.95003 7.08688 8.94877 7.08646C8.94667 7.08605 8.94468 7.08554 8.94269 7.08512C8.94122 7.08492 8.93965 7.08471 8.93818 7.08461C8.9363 7.0842 8.93441 7.08409 8.93252 7.08389C8.93074 7.08368 8.92896 7.08368 8.92707 7.08358C8.92571 7.08358 8.92466 7.08337 8.9233 7.08337H8.53993C8.48114 7.08337 8.43335 7.13024 8.43335 7.18781V9.52894C8.43335 9.58661 8.48114 9.63337 8.53993 9.63337H8.9233C8.9822 9.63337 9.02989 9.58661 9.02989 9.52894V8.13848L10.1229 9.58919C10.1304 9.59969 10.1397 9.60824 10.1499 9.61504C10.1502 9.61525 10.1506 9.61556 10.151 9.61586C10.1532 9.6172 10.1554 9.61854 10.1576 9.61978C10.1586 9.6204 10.1596 9.62081 10.1606 9.62132C10.1622 9.62225 10.164 9.62307 10.1656 9.6238C10.1674 9.62452 10.169 9.62524 10.1709 9.62596C10.1719 9.62637 10.173 9.62678 10.174 9.62709C10.1765 9.62802 10.1788 9.62874 10.1812 9.62946C10.1818 9.62946 10.1823 9.62967 10.1828 9.62977C10.1915 9.63204 10.2006 9.63337 10.2101 9.63337H10.5935C10.6524 9.63337 10.7 9.58661 10.7 9.52894V7.18781C10.7 7.13024 10.6524 7.08337 10.5935 7.08337Z" fill="#00B900"/>
<path d="M7.1963 9.04714H6.18102V7.18801C6.18102 7.13024 6.13456 7.08337 6.07737 7.08337H5.70361C5.64632 7.08337 5.59985 7.13024 5.59985 7.18801V9.52863V9.52884C5.59985 9.55695 5.61098 9.58239 5.62886 9.60114C5.62926 9.60165 5.62967 9.60217 5.63029 9.60268C5.6308 9.6032 5.63131 9.60361 5.63182 9.60412C5.65051 9.62225 5.67563 9.63337 5.70351 9.63337H7.1963C7.25359 9.63337 7.29985 9.58641 7.29985 9.52863V9.15178C7.29985 9.094 7.25359 9.04714 7.1963 9.04714Z" fill="#00B900"/>
<path d="M12.5798 7.66961C12.6371 7.66961 12.6834 7.62285 12.6834 7.56497V7.18812C12.6834 7.13034 12.6371 7.08337 12.5798 7.08337H11.0872H11.0869C11.059 7.08337 11.0337 7.0947 11.0151 7.11293C11.0146 7.11334 11.0141 7.11365 11.0138 7.11407C11.0132 7.11468 11.0127 7.1153 11.0122 7.11592C10.9944 7.13466 10.9834 7.16 10.9834 7.18801V7.18812V9.52873V9.52884C10.9834 9.55695 10.9945 9.58239 11.0124 9.60114C11.0128 9.60165 11.0133 9.60227 11.0138 9.60268C11.0142 9.6032 11.0149 9.60371 11.0154 9.60412C11.0339 9.62215 11.0592 9.63337 11.0869 9.63337H12.5798C12.6371 9.63337 12.6834 9.58641 12.6834 9.52873V9.15178C12.6834 9.0941 12.6371 9.04714 12.5798 9.04714H11.5647V8.65144H12.5798C12.6371 8.65144 12.6834 8.60458 12.6834 8.5468V8.16995C12.6834 8.11217 12.6371 8.0652 12.5798 8.0652H11.5647V7.66961H12.5798Z" fill="#00B900"/>
</svg>
