<svg width="18" height="17" viewBox="0 0 18 17" fill="none" xmlns="http://www.w3.org/2000/svg">
<g clip-path="url(#clip0_82_9735)">
<path d="M16.2448 0H1.75469C1.42186 0 1.10266 0.132216 0.867317 0.367561C0.631972 0.602906 0.499756 0.922102 0.499756 1.25493V15.7451C0.499756 16.0779 0.631972 16.3971 0.867317 16.6324C1.10266 16.8678 1.42186 17 1.75469 17H16.2448C16.5777 17 16.8969 16.8678 17.1322 16.6324C17.3675 16.3971 17.4998 16.0779 17.4998 15.7451V1.25493C17.4998 0.922102 17.3675 0.602906 17.1322 0.367561C16.8969 0.132216 16.5777 0 16.2448 0ZM5.5667 14.4819H3.0108V6.36319H5.5667V14.4819ZM4.28698 5.23813C3.99706 5.23649 3.71411 5.14901 3.47386 4.98673C3.23361 4.82444 3.04681 4.59463 2.93704 4.32628C2.82728 4.05793 2.79946 3.76309 2.85711 3.47895C2.91476 3.19481 3.05528 2.93411 3.26095 2.72976C3.46662 2.52541 3.72821 2.38656 4.01271 2.33074C4.29721 2.27492 4.59188 2.30463 4.85951 2.41611C5.12715 2.5276 5.35576 2.71587 5.5165 2.95716C5.67724 3.19845 5.7629 3.48195 5.76267 3.77188C5.76541 3.96598 5.72903 4.15865 5.65572 4.3384C5.58241 4.51815 5.47366 4.6813 5.33595 4.81813C5.19824 4.95496 5.0344 5.06266 4.85418 5.13481C4.67396 5.20697 4.48106 5.24211 4.28698 5.23813ZM14.9875 14.489H12.4328V10.0536C12.4328 8.74556 11.8768 8.34181 11.159 8.34181C10.4011 8.34181 9.65732 8.91319 9.65732 10.0867V14.489H7.10142V6.3691H9.55934V7.49417H9.5924C9.83913 6.99479 10.7033 6.14125 12.022 6.14125C13.4481 6.14125 14.9887 6.98771 14.9887 9.46688L14.9875 14.489Z" fill="#0A66C2"/>
</g>
<defs>
<clipPath id="clip0_82_9735">
<rect width="17" height="17" fill="white" transform="translate(0.5)"/>
</clipPath>
</defs>
</svg>
