<svg width="18" height="17" viewBox="0 0 18 17" fill="none" xmlns="http://www.w3.org/2000/svg">
<path d="M8.99925 0C4.21205 0 0.5 3.50806 0.5 8.24427C0.5 10.7218 1.51566 12.8636 3.16876 14.3425C3.30688 14.4657 3.39187 14.64 3.39612 14.8269L3.44286 16.3398C3.45774 16.8221 3.95494 17.1366 4.3969 16.9411L6.084 16.1974C6.22637 16.1337 6.38785 16.1231 6.53872 16.1634C7.31427 16.3759 8.1387 16.4907 8.99925 16.4907C13.7864 16.4907 17.4985 12.9826 17.4985 8.24639C17.4985 3.51019 13.7864 0 8.99925 0Z" fill="url(#paint0_radial_82_9756)"/>
<path d="M3.89543 10.6559L6.39208 6.69522C6.78942 6.06416 7.63935 5.90904 8.23642 6.35525L10.2231 7.84475C10.4059 7.98074 10.6566 7.98074 10.8372 7.84262L13.5187 5.80705C13.8757 5.53508 14.3431 5.96429 14.1052 6.34463L11.6064 10.3032C11.209 10.9342 10.3591 11.0893 9.76204 10.6431L7.77534 9.15363C7.5926 9.01764 7.34188 9.01764 7.16127 9.15576L4.47975 11.1913C4.12279 11.4633 3.65533 11.0362 3.89543 10.6559Z" fill="white"/>
<defs>
<radialGradient id="paint0_radial_82_9756" cx="0" cy="0" r="1" gradientUnits="userSpaceOnUse" gradientTransform="translate(3.77221 16.9059) scale(18.5216)">
<stop stop-color="#0099FF"/>
<stop offset="0.6098" stop-color="#A033FF"/>
<stop offset="0.9348" stop-color="#FF5280"/>
<stop offset="1" stop-color="#FF7061"/>
</radialGradient>
</defs>
</svg>
