<svg width="18" height="17" viewBox="0 0 18 17" fill="none" xmlns="http://www.w3.org/2000/svg">
<path fill-rule="evenodd" clip-rule="evenodd" d="M12.7779 3.55457C12.0464 2.8896 10.9276 2.89551 10.2032 3.56817L5.06953 8.33512C3.73466 9.57464 3.72962 11.6857 5.05856 12.9316C6.27459 14.0716 8.16909 14.0642 9.37612 12.9146L14.1782 8.34124C14.4615 8.07144 14.9098 8.08238 15.1796 8.36566C15.4494 8.64895 15.4385 9.09731 15.1552 9.3671L10.3531 13.9405C8.60209 15.6082 5.85374 15.619 4.08964 13.9651C2.16175 12.1577 2.16905 9.09517 4.10556 7.297L9.23919 2.53005C10.5029 1.35658 12.4548 1.34627 13.7308 2.50632C15.1774 3.82143 15.1799 6.09566 13.7361 7.41389L8.5956 12.1074C7.81867 12.8168 6.6212 12.7896 5.87728 12.0457C5.09121 11.2596 5.11187 9.9789 5.92287 9.21859L10.6406 4.79575C10.926 4.52819 11.3742 4.54265 11.6418 4.82804C11.9093 5.11344 11.8949 5.5617 11.6095 5.82926L6.89179 10.2521C6.66463 10.4651 6.65885 10.8238 6.87902 11.0439C7.08738 11.2523 7.42278 11.2599 7.64039 11.0612L12.7809 6.3677C13.6085 5.61207 13.6071 4.30842 12.7779 3.55457Z" fill="black"/>
<path fill-rule="evenodd" clip-rule="evenodd" d="M12.7779 3.55457C12.0464 2.8896 10.9276 2.89551 10.2032 3.56817L5.06953 8.33512C3.73466 9.57464 3.72962 11.6857 5.05856 12.9316C6.27459 14.0716 8.16909 14.0642 9.37612 12.9146L14.1782 8.34124C14.4615 8.07144 14.9098 8.08238 15.1796 8.36566C15.4494 8.64895 15.4385 9.09731 15.1552 9.3671L10.3531 13.9405C8.60209 15.6082 5.85374 15.619 4.08964 13.9651C2.16175 12.1577 2.16905 9.09517 4.10556 7.297L9.23919 2.53005C10.5029 1.35658 12.4548 1.34627 13.7308 2.50632C15.1774 3.82143 15.1799 6.09566 13.7361 7.41389L8.5956 12.1074C7.81867 12.8168 6.6212 12.7896 5.87728 12.0457C5.09121 11.2596 5.11187 9.9789 5.92287 9.21859L10.6406 4.79575C10.926 4.52819 11.3742 4.54265 11.6418 4.82804C11.9093 5.11344 11.8949 5.5617 11.6095 5.82926L6.89179 10.2521C6.66463 10.4651 6.65885 10.8238 6.87902 11.0439C7.08738 11.2523 7.42278 11.2599 7.64039 11.0612L12.7809 6.3677C13.6085 5.61207 13.6071 4.30842 12.7779 3.55457Z" fill="#203EDF" fill-opacity="0.3"/>
<path fill-rule="evenodd" clip-rule="evenodd" d="M12.7779 3.55457C12.0464 2.8896 10.9276 2.89551 10.2032 3.56817L5.06953 8.33512C3.73466 9.57464 3.72962 11.6857 5.05856 12.9316C6.27459 14.0716 8.16909 14.0642 9.37612 12.9146L14.1782 8.34124C14.4615 8.07144 14.9098 8.08238 15.1796 8.36566C15.4494 8.64895 15.4385 9.09731 15.1552 9.3671L10.3531 13.9405C8.60209 15.6082 5.85374 15.619 4.08964 13.9651C2.16175 12.1577 2.16905 9.09517 4.10556 7.297L9.23919 2.53005C10.5029 1.35658 12.4548 1.34627 13.7308 2.50632C15.1774 3.82143 15.1799 6.09566 13.7361 7.41389L8.5956 12.1074C7.81867 12.8168 6.6212 12.7896 5.87728 12.0457C5.09121 11.2596 5.11187 9.9789 5.92287 9.21859L10.6406 4.79575C10.926 4.52819 11.3742 4.54265 11.6418 4.82804C11.9093 5.11344 11.8949 5.5617 11.6095 5.82926L6.89179 10.2521C6.66463 10.4651 6.65885 10.8238 6.87902 11.0439C7.08738 11.2523 7.42278 11.2599 7.64039 11.0612L12.7809 6.3677C13.6085 5.61207 13.6071 4.30842 12.7779 3.55457Z" fill="white" fill-opacity="0.05"/>
</svg>
