<svg width="18" height="17" viewBox="0 0 18 17" fill="none" xmlns="http://www.w3.org/2000/svg">
<g clip-path="url(#clip0_82_9740)">
<path d="M9 17C13.6944 17 17.5 13.1944 17.5 8.5C17.5 3.80558 13.6944 0 9 0C4.30558 0 0.5 3.80558 0.5 8.5C0.5 13.1944 4.30558 17 9 17Z" fill="white"/>
<path d="M9 0C4.30576 0 0.5 3.80576 0.5 8.5C0.5 12.1029 2.73868 15.1811 5.90082 16.4193C5.82387 15.7477 5.76091 14.7123 5.92881 13.9778C6.08272 13.3132 6.92222 9.75226 6.92222 9.75226C6.92222 9.75226 6.67037 9.24156 6.67037 8.493C6.67037 7.3107 7.35597 6.42922 8.20946 6.42922C8.93704 6.42922 9.28683 6.9749 9.28683 7.62551C9.28683 8.35309 8.8251 9.44445 8.58025 10.4588C8.37737 11.3054 9.007 11.9979 9.83951 11.9979C11.3506 11.9979 12.5119 10.4029 12.5119 8.10823C12.5119 6.07243 11.0498 4.65226 8.95802 4.65226C6.53745 4.65226 5.11728 6.4642 5.11728 8.3391C5.11728 9.06667 5.39712 9.85021 5.74691 10.277C5.81687 10.3609 5.82387 10.4379 5.80288 10.5218C5.73992 10.7877 5.593 11.3683 5.56502 11.4872C5.53004 11.6412 5.43909 11.6761 5.27819 11.5992C4.21481 11.1025 3.55021 9.55638 3.55021 8.30412C3.55021 5.62469 5.49506 3.16214 9.1679 3.16214C12.1132 3.16214 14.4078 5.26091 14.4078 8.07325C14.4078 11.0045 12.5609 13.3621 10.0004 13.3621C9.13992 13.3621 8.32839 12.9144 8.05556 12.3827C8.05556 12.3827 7.62881 14.0058 7.52387 14.4045C7.33498 15.1461 6.81728 16.0695 6.46749 16.6362C7.26502 16.8811 8.10453 17.014 8.98601 17.014C13.6802 17.014 17.486 13.2082 17.486 8.51399C17.5 3.80576 13.6942 0 9 0Z" fill="#E60019"/>
</g>
<defs>
<clipPath id="clip0_82_9740">
<rect width="17" height="17" fill="white" transform="translate(0.5)"/>
</clipPath>
</defs>
</svg>
