<svg width="18" height="18" viewBox="0 0 18 18" fill="none" xmlns="http://www.w3.org/2000/svg">
<path d="M9.10567 13.7307C6.25794 13.7307 4.95685 12.28 4.95685 11.216C4.95646 10.9621 5.06064 10.7193 5.24487 10.5447C5.42909 10.3701 5.67711 10.2791 5.93055 10.2931C7.1498 10.2931 6.83088 12.1219 9.10567 12.1219C10.2685 12.1219 10.9515 11.422 10.9515 10.7644C10.9515 10.3693 10.7257 9.91768 9.95802 9.73705L7.41792 9.09638C5.37738 8.57707 5.02176 7.4425 5.02176 6.38977C5.02176 4.20528 7.01997 3.41503 8.92222 3.41503C10.6749 3.41503 12.7578 4.38309 12.7578 5.69265C12.7578 6.25712 12.2864 6.55911 11.7389 6.55911C10.6975 6.55911 10.8725 5.09714 8.77828 5.09714C7.73684 5.09714 7.18931 5.5854 7.18931 6.26841C7.18931 6.95141 7.99932 7.18284 8.71055 7.33807L10.5846 7.76142C12.6392 8.22428 13.1868 9.42942 13.1868 10.5838C13.1868 12.359 11.8123 13.7307 9.10285 13.7307H9.10567ZM16.9687 9.97413C17.05 9.50816 17.0906 9.03598 17.09 8.56296C17.1 6.18688 16.056 3.92866 14.2394 2.39703C12.4228 0.865408 10.0206 0.218025 7.6804 0.629391C6.9611 0.215252 6.14529 -0.00184321 5.31528 1.17886e-05C3.61161 0.0104191 2.04123 0.923499 1.1894 2.39896C0.337571 3.87442 0.332061 5.69095 1.17492 7.17155C0.704613 9.75578 1.52846 12.4066 3.38072 14.269C5.23299 16.1314 7.87929 16.9697 10.466 16.5135C11.1845 16.9273 11.9993 17.1443 12.8283 17.1428C14.5311 17.1319 16.1006 16.2192 16.9522 14.7446C17.8039 13.27 17.8101 11.4545 16.9687 9.97413Z" fill="#0078D7"/>
</svg>
