<svg width="18" height="17" viewBox="0 0 18 17" fill="none" xmlns="http://www.w3.org/2000/svg">
<path d="M16.2939 12.5231C13.6614 11.2484 13.2418 9.28019 13.2231 9.13421C13.2005 8.95738 13.1749 8.81835 13.3699 8.63847C13.558 8.46469 14.3924 7.9481 14.6239 7.78647C15.0065 7.51884 15.1751 7.25163 15.0508 6.92317C14.964 6.69594 14.7525 6.61035 14.5296 6.61035C14.4594 6.61056 14.3893 6.61843 14.3207 6.63381C13.9003 6.72505 13.492 6.93577 13.2557 6.99269C13.2273 7.00001 13.1982 7.00395 13.1688 7.00442C13.0429 7.00442 12.9951 6.94837 13.0073 6.79674C13.0368 6.33707 13.0993 5.43988 13.0268 4.60178C12.9273 3.44868 12.5555 2.87735 12.1147 2.37205C11.9014 2.12701 10.9111 1.07428 9 1.07428C7.08888 1.07428 6.09988 2.12701 5.88792 2.36901C5.44576 2.87431 5.07439 3.44564 4.9758 4.59873C4.90326 5.43684 4.96841 6.33359 4.99534 6.7937C5.00403 6.93794 4.95973 7.00138 4.83377 7.00138C4.80445 7.00087 4.7753 6.99694 4.7469 6.98965C4.51105 6.93273 4.10277 6.72201 3.68232 6.63077C3.61374 6.61539 3.54369 6.60752 3.4734 6.60731C3.24971 6.60731 3.03906 6.6942 2.95219 6.92013C2.82797 7.24859 2.99562 7.51579 3.37958 7.78343C3.61109 7.94505 4.44546 8.46121 4.63353 8.63543C4.82812 8.81531 4.80293 8.95434 4.78034 9.13117C4.76167 9.27932 4.34166 11.2475 1.70953 12.5201C1.55534 12.5948 1.29299 12.7529 1.75557 13.0084C2.48179 13.4099 2.96522 13.3669 3.34093 13.6089C3.65973 13.8144 3.47123 14.2575 3.70317 14.4174C3.9881 14.6142 4.83029 14.4035 5.91833 14.7628C6.83045 15.0635 7.38467 15.9129 9.00217 15.9129C10.6197 15.9129 11.19 15.0596 12.086 14.7628C13.1719 14.4035 14.0158 14.6142 14.3012 14.4174C14.5327 14.2575 14.3446 13.8144 14.6634 13.6089C15.0391 13.3669 15.5221 13.4099 16.2488 13.0084C16.7105 12.756 16.4481 12.5978 16.2939 12.5231Z" fill="white"/>
<path d="M17.4392 12.3735C17.3211 12.052 17.0961 11.88 16.8398 11.7375C16.7916 11.7092 16.7473 11.6866 16.7095 11.6692C16.6331 11.6297 16.5549 11.5915 16.4772 11.5511C15.6784 11.1275 15.0547 10.5931 14.6221 9.95959C14.4992 9.78125 14.3927 9.59222 14.3037 9.39477C14.2668 9.2892 14.2685 9.22924 14.295 9.17449C14.3213 9.13232 14.356 9.09607 14.3971 9.06805C14.5343 8.97724 14.6759 8.88513 14.7719 8.823C14.943 8.71221 15.0786 8.62445 15.1659 8.56232C15.4938 8.33292 15.7231 8.08918 15.8665 7.81676C15.9665 7.62855 16.0248 7.42101 16.0375 7.20824C16.0501 6.99548 16.0168 6.78248 15.9399 6.58372C15.7227 6.01196 15.1828 5.65699 14.5287 5.65699C14.3907 5.65686 14.2531 5.67142 14.1182 5.70044C14.0822 5.70826 14.0461 5.71651 14.0109 5.72564C14.017 5.33461 14.0083 4.92186 13.9736 4.51563C13.8502 3.08751 13.3503 2.33891 12.8291 1.74194C12.4953 1.36786 12.1022 1.05137 11.6655 0.805218C10.8745 0.353365 9.97762 0.123962 8.99992 0.123962C8.02221 0.123962 7.12963 0.353365 6.33782 0.805218C5.90005 1.05145 5.50612 1.36857 5.17204 1.74368C4.65083 2.34065 4.1509 3.09055 4.02754 4.51736C3.99279 4.9236 3.98411 5.33852 3.98975 5.72738C3.95457 5.71825 3.91896 5.71 3.88291 5.70218C3.74802 5.67316 3.61042 5.6586 3.47245 5.65873C2.81789 5.65873 2.27713 6.01369 2.06083 6.58546C1.98351 6.7843 1.9499 6.99745 1.96226 7.21044C1.97463 7.42343 2.03269 7.63126 2.1325 7.8198C2.27627 8.09222 2.5056 8.33596 2.83353 8.56536C2.9204 8.62619 3.05635 8.71395 3.22748 8.82605C3.31999 8.886 3.45508 8.97377 3.58755 9.06153C3.6339 9.0915 3.6733 9.13106 3.70309 9.17754C3.73088 9.23445 3.73175 9.29571 3.69049 9.40867C3.60273 9.60197 3.49792 9.78706 3.37733 9.96176C2.95428 10.5809 2.3488 11.1057 1.57567 11.5259C1.16608 11.7431 0.740424 11.8882 0.560605 12.377C0.42509 12.7459 0.513696 13.1656 0.858131 13.5192C0.984542 13.6512 1.13116 13.7623 1.29248 13.8481C1.62813 14.0326 1.98505 14.1755 2.35532 14.2735C2.43173 14.2932 2.50426 14.3257 2.56988 14.3695C2.69541 14.4794 2.6776 14.645 2.84482 14.8874C2.92876 15.0127 3.03542 15.1212 3.15929 15.2072C3.51024 15.4496 3.90462 15.4648 4.32246 15.4809C4.69991 15.4952 5.12774 15.5117 5.61637 15.6729C5.81878 15.7398 6.029 15.8693 6.27267 16.0205C6.85773 16.3802 7.65866 16.8725 8.99905 16.8725C10.3394 16.8725 11.146 16.3776 11.7354 16.0166C11.9773 15.868 12.1863 15.7398 12.383 15.6747C12.8717 15.513 13.2995 15.497 13.6769 15.4826C14.0948 15.4665 14.4892 15.4513 14.8401 15.2089C14.9868 15.1066 15.109 14.973 15.198 14.8179C15.3183 14.6132 15.3153 14.4703 15.4282 14.3704C15.4898 14.3286 15.5579 14.2975 15.6297 14.2783C16.0051 14.18 16.3668 14.0358 16.7069 13.849C16.8783 13.757 17.0326 13.6362 17.163 13.4919L17.1673 13.4866C17.4905 13.1408 17.5717 12.7333 17.4392 12.3735ZM16.2478 13.0139C15.5212 13.4154 15.0382 13.3724 14.6625 13.6144C14.3432 13.8199 14.5322 14.2631 14.3002 14.4229C14.0153 14.6198 13.1731 14.409 12.0851 14.7683C11.1877 15.0651 10.6152 15.9184 9.00122 15.9184C7.38719 15.9184 6.82819 15.0668 5.91607 14.7662C4.83021 14.4069 3.98628 14.6176 3.70092 14.4208C3.46941 14.2609 3.65748 13.8177 3.33867 13.6122C2.96253 13.3702 2.47954 13.4132 1.75331 13.0139C1.29074 12.7585 1.55308 12.6003 1.70727 12.5256C4.3394 11.2508 4.75941 9.28268 4.77809 9.13669C4.80067 8.95986 4.82587 8.82083 4.63128 8.64096C4.44321 8.46717 3.60883 7.95058 3.37733 7.78896C2.99424 7.52132 2.82571 7.25412 2.94993 6.92565C3.0368 6.69842 3.24876 6.61283 3.47115 6.61283C3.54143 6.61305 3.61148 6.62092 3.68007 6.6363C4.10051 6.72754 4.5088 6.93825 4.74464 6.99517C4.77304 7.00246 4.8022 7.0064 4.83151 7.0069C4.95747 7.0069 5.00178 6.94347 4.99309 6.79922C4.96616 6.33912 4.90101 5.44236 4.97354 4.60426C5.07301 3.45117 5.44437 2.87983 5.88567 2.37454C6.09763 2.13167 7.09358 1.07894 8.99818 1.07894C10.9028 1.07894 11.9013 2.12732 12.1133 2.36932C12.555 2.87462 12.9268 3.44595 13.0254 4.59905C13.098 5.43715 13.0354 6.33434 13.0059 6.79401C12.9959 6.94564 13.0415 7.00169 13.1674 7.00169C13.1968 7.00122 13.2259 6.99728 13.2543 6.98996C13.4906 6.93304 13.8989 6.72232 14.3193 6.63108C14.3879 6.6157 14.458 6.60784 14.5282 6.60762C14.7519 6.60762 14.9626 6.69451 15.0495 6.92044C15.1737 7.2489 15.006 7.51611 14.6225 7.78374C14.391 7.94537 13.5566 8.46152 13.3686 8.63575C13.1735 8.81562 13.1992 8.95465 13.2217 9.13148C13.2404 9.27964 13.66 11.2478 16.2926 12.5204C16.4481 12.5982 16.7104 12.7563 16.2478 13.0139Z" fill="black"/>
</svg>
