<svg width="18" height="17" viewBox="0 0 18 17" fill="none" xmlns="http://www.w3.org/2000/svg">
<g clip-path="url(#clip0_82_9743)">
<path d="M9 17C13.6944 17 17.5 13.1944 17.5 8.5C17.5 3.80558 13.6944 0 9 0C4.30558 0 0.5 3.80558 0.5 8.5C0.5 13.1944 4.30558 17 9 17Z" fill="url(#paint0_linear_82_9743)"/>
<path fill-rule="evenodd" clip-rule="evenodd" d="M4.34747 8.41027C6.8254 7.33068 8.47773 6.61895 9.30448 6.27508C11.665 5.29325 12.1555 5.1227 12.4752 5.11706C12.5455 5.11583 12.7028 5.13325 12.8046 5.21589C12.8906 5.28566 12.9143 5.37992 12.9256 5.44608C12.9369 5.51223 12.951 5.66294 12.9398 5.78069C12.8119 7.12474 12.2584 10.3864 11.9768 11.8918C11.8576 12.5287 11.623 12.7423 11.3959 12.7632C10.9023 12.8086 10.5274 12.437 10.0494 12.1236C9.30125 11.6332 8.87861 11.3279 8.15244 10.8494C7.31323 10.2964 7.85725 9.99241 8.33552 9.49566C8.46069 9.36566 10.6355 7.38746 10.6776 7.20801C10.6829 7.18556 10.6878 7.1019 10.6381 7.05773C10.5884 7.01355 10.515 7.02866 10.4621 7.04067C10.3871 7.0577 9.19195 7.84763 6.87675 9.41045C6.53752 9.64339 6.23026 9.75689 5.95496 9.75094C5.65147 9.74439 5.06767 9.57934 4.63367 9.43827C4.10136 9.26523 3.67829 9.17375 3.71513 8.87989C3.73432 8.72682 3.9451 8.57029 4.34747 8.41027Z" fill="white"/>
</g>
<defs>
<linearGradient id="paint0_linear_82_9743" x1="9" y1="0" x2="9" y2="16.8739" gradientUnits="userSpaceOnUse">
<stop stop-color="#2AABEE"/>
<stop offset="1" stop-color="#229ED9"/>
</linearGradient>
<clipPath id="clip0_82_9743">
<rect width="17" height="17" fill="white" transform="translate(0.5)"/>
</clipPath>
</defs>
</svg>
