<svg width="18" height="17" viewBox="0 0 18 17" fill="none" xmlns="http://www.w3.org/2000/svg">
<path d="M12.6669 6.13664C13.7601 6.92089 15.0993 7.38233 16.5457 7.38233V4.58904C16.272 4.58909 15.9989 4.56045 15.7311 4.50351V6.70222C14.2848 6.70222 12.9458 6.24079 11.8523 5.4566V11.1569C11.8523 14.0085 9.54882 16.32 6.70755 16.32C5.64741 16.32 4.66205 15.9983 3.84351 15.4467C4.77774 16.4053 6.08059 17 7.52197 17C10.3634 17 12.667 14.6885 12.667 11.8368V6.13664H12.6669ZM13.6717 3.31856C13.1131 2.70601 12.7462 1.91442 12.6669 1.03927V0.679993H11.8949C12.0892 1.7923 12.752 2.74259 13.6717 3.31856ZM5.64061 13.2585C5.32846 12.8477 5.15978 12.3453 5.16054 11.8287C5.16054 10.5245 6.21412 9.46698 7.51395 9.46698C7.75619 9.46692 7.99699 9.50415 8.22784 9.57766V6.72194C7.95805 6.68484 7.68577 6.66908 7.4136 6.67486V8.89761C7.18257 8.8241 6.94166 8.78676 6.69936 8.78699C5.39953 8.78699 4.34601 9.84435 4.34601 11.1487C4.34601 12.071 4.87262 12.8695 5.64061 13.2585Z" fill="#FF004F"/>
<path d="M11.8523 5.45654C12.9458 6.24073 14.2848 6.70216 15.7311 6.70216V4.50345C14.9238 4.33087 14.2091 3.90747 13.6717 3.31856C12.7519 2.74254 12.0892 1.79224 11.8949 0.679993H9.86724V11.8367C9.86265 13.1373 8.81087 14.1905 7.51383 14.1905C6.7495 14.1905 6.07048 13.8249 5.64043 13.2585C4.8725 12.8695 4.34589 12.0709 4.34589 11.1488C4.34589 9.84452 5.39941 8.78705 6.69924 8.78705C6.94828 8.78705 7.18832 8.82597 7.41348 8.89767V6.67492C4.62212 6.73279 2.3772 9.02171 2.3772 11.8368C2.3772 13.242 2.93624 14.5159 3.84356 15.4467C4.6621 15.9983 5.64746 16.32 6.70761 16.32C9.54894 16.32 11.8523 14.0084 11.8523 11.1569V5.45654H11.8523Z" fill="black"/>
<path d="M15.7312 4.50344V3.90893C15.0032 3.91004 14.2895 3.70543 13.6718 3.3185C14.2186 3.91925 14.9386 4.33349 15.7312 4.50344ZM11.895 0.679988C11.8765 0.573687 11.8622 0.466686 11.8523 0.359277V0H9.05267V11.1568C9.0482 12.4573 7.99648 13.5104 6.69932 13.5104C6.31849 13.5104 5.95893 13.4197 5.64051 13.2585C6.07055 13.8249 6.74958 14.1904 7.51391 14.1904C8.81084 14.1904 9.86279 13.1374 9.86732 11.8368V0.679988H11.895ZM7.41368 6.67491V6.04201C7.17974 6.00992 6.94389 5.99382 6.70775 5.99393C3.86618 5.99387 1.56274 8.30548 1.56274 11.1568C1.56274 12.9445 2.46804 14.5199 3.8437 15.4466C2.93637 14.5159 2.37733 13.2419 2.37733 11.8367C2.37733 9.0217 4.6222 6.73279 7.41368 6.67491Z" fill="#00F2EA"/>
</svg>
