<svg width="18" height="17" viewBox="0 0 18 17" fill="none" xmlns="http://www.w3.org/2000/svg">
<g clip-path="url(#clip0_82_9747)">
<path d="M5.84616 15.4067C12.2613 15.4067 15.7701 10.0918 15.7701 5.48279C15.7701 5.33183 15.7701 5.18155 15.7599 5.03195C16.4425 4.53821 17.0317 3.92687 17.5 3.22655C16.8635 3.50875 16.1882 3.69373 15.4967 3.77531C16.2249 3.33946 16.7698 2.65386 17.0301 1.84615C16.3455 2.25245 15.5964 2.53877 14.8154 2.69275C14.2895 2.13357 13.594 1.7633 12.8365 1.63923C12.079 1.51516 11.3017 1.64421 10.6249 2.00641C9.94811 2.36861 9.40957 2.94376 9.09261 3.64287C8.77564 4.34198 8.69792 5.12606 8.87148 5.87379C7.4848 5.80423 6.12824 5.44385 4.88986 4.81605C3.65148 4.18825 2.55896 3.30706 1.6832 2.22967C1.23718 2.9975 1.10058 3.90645 1.3012 4.77147C1.50181 5.63648 2.02458 6.39251 2.76304 6.88563C2.20796 6.86936 1.66496 6.71962 1.18 6.44907V6.49327C1.18022 7.29854 1.45898 8.07894 1.96899 8.70211C2.47901 9.32528 3.18888 9.75285 3.9782 9.91231C3.46472 10.0524 2.92595 10.0728 2.40332 9.97215C2.62629 10.6651 3.06022 11.2711 3.64446 11.7054C4.2287 12.1397 4.93404 12.3805 5.66188 12.3943C4.93873 12.9627 4.1106 13.383 3.22487 13.6311C2.33914 13.8791 1.41319 13.9501 0.5 13.84C2.09505 14.8635 3.95095 15.4065 5.84616 15.404" fill="#1DA1F2"/>
</g>
<defs>
<clipPath id="clip0_82_9747">
<rect width="17" height="17" fill="white" transform="translate(0.5)"/>
</clipPath>
</defs>
</svg>
