<svg width="18" height="17" viewBox="0 0 18 17" fill="none" xmlns="http://www.w3.org/2000/svg">
<path d="M0.5 8.5C0.5 3.80558 4.30558 0 9 0C13.6944 0 17.5 3.80558 17.5 8.5C17.5 13.1944 13.6944 17 9 17C4.30558 17 0.5 13.1944 0.5 8.5Z" fill="#45B035"/>
<path fill-rule="evenodd" clip-rule="evenodd" d="M11.3813 6.83401C11.3249 6.83089 11.2682 6.83032 11.211 6.83032C9.17555 6.83032 7.52428 8.21356 7.52428 9.92064C7.52428 10.2 7.5699 10.4706 7.65291 10.7281C7.56281 10.7327 7.47215 10.7364 7.38091 10.7364C6.93353 10.7364 6.5023 10.6757 6.10025 10.5638C6.0773 10.557 6.0314 10.544 6.0314 10.544L4.56826 11.2891L4.95926 10.0643L4.92215 10.0408C3.95626 9.42226 3.3335 8.44787 3.3335 7.35166C3.3335 5.48222 5.14541 3.96667 7.38091 3.96667C9.40561 3.96667 11.0832 5.20966 11.3813 6.83401ZM5.97242 6.73626C5.65849 6.73626 5.40406 6.48948 5.40406 6.18575C5.40406 5.88173 5.65849 5.6358 5.97242 5.6358C6.28636 5.6358 6.54136 5.88173 6.54136 6.18575C6.54136 6.48948 6.28636 6.73626 5.97242 6.73626ZM8.78939 5.6358C9.10332 5.6358 9.35747 5.88173 9.35747 6.18575C9.35747 6.48948 9.10332 6.73626 8.78939 6.73626C8.47517 6.73626 8.22131 6.48948 8.22131 6.18575C8.22131 5.88173 8.47517 5.6358 8.78939 5.6358Z" fill="white"/>
<path fill-rule="evenodd" clip-rule="evenodd" d="M11.2419 12.8005C9.35319 12.8005 7.82178 11.5201 7.82178 9.94052C7.82178 8.3615 9.35319 7.08112 11.2419 7.08112C13.1297 7.08112 14.6606 8.3615 14.6606 9.94052C14.6606 10.867 14.1342 11.6901 13.3184 12.2126L13.287 12.2321L13.6174 13.2674L12.3817 12.6373C12.3817 12.6373 12.3429 12.6489 12.3234 12.654C11.9839 12.7489 11.6196 12.8005 11.2419 12.8005ZM9.57134 8.95538C9.57134 8.69925 9.78667 8.491 10.0516 8.491C10.3171 8.491 10.5321 8.69925 10.5321 8.95538C10.5321 9.21264 10.3171 9.42118 10.0516 9.42118C9.78667 9.42118 9.57134 9.21264 9.57134 8.95538ZM11.9511 8.95538C11.9511 8.69925 12.1658 8.491 12.431 8.491C12.6965 8.491 12.9113 8.69925 12.9113 8.95538C12.9113 9.21264 12.6965 9.42118 12.431 9.42118C12.1658 9.42118 11.9511 9.21264 11.9511 8.95538Z" fill="white"/>
</svg>
