<svg width="18" height="17" viewBox="0 0 18 17" fill="none" xmlns="http://www.w3.org/2000/svg">
<path d="M9 17C13.6944 17 17.5 13.1944 17.5 8.5C17.5 3.80558 13.6944 0 9 0C4.30558 0 0.5 3.80558 0.5 8.5C0.5 13.1944 4.30558 17 9 17Z" fill="white"/>
<path d="M4.75 10.0583C4.75 11.2321 6.27266 12.1833 8.15 12.1833C10.0273 12.1833 11.55 11.2321 11.55 10.0583C11.55 8.88459 10.0273 7.93335 8.15 7.93335C6.27266 7.93335 4.75 8.88459 4.75 10.0583Z" fill="white"/>
<path fill-rule="evenodd" clip-rule="evenodd" d="M11.4599 8.47173L11.4634 8.47282C12.0414 8.65402 12.6846 9.09227 12.6832 9.86484C12.6832 11.1417 10.8618 12.75 8.12346 12.75C6.0353 12.75 3.8999 11.726 3.8999 10.0432C3.8999 9.16251 4.45147 8.14412 5.40038 7.18474C6.66883 5.90228 8.14847 5.31794 8.7042 5.88121C8.94872 6.12984 8.97234 6.55826 8.81534 7.07096C8.73198 7.32801 9.05431 7.18614 9.05431 7.18614C10.0796 6.7521 10.9744 6.72682 11.3009 7.19879C11.4759 7.45162 11.4592 7.8042 11.2981 8.21295C11.2251 8.3996 11.3201 8.42879 11.4599 8.47173ZM4.91544 10.445C5.02381 11.5504 6.46315 12.3132 8.13035 12.146C9.79615 11.9803 11.0604 10.9478 10.9507 9.84096C10.8437 8.73549 9.40436 7.97276 7.73717 8.13991C6.07136 8.30707 4.80708 9.33809 4.91544 10.445Z" fill="#E6162D"/>
<path d="M13.3831 5.39702C12.6927 4.67691 11.6745 4.40278 10.7347 4.59099C10.5171 4.63463 10.3793 4.83648 10.4257 5.03969C10.4722 5.24427 10.6854 5.37383 10.9029 5.33019C11.5716 5.19653 12.2953 5.39156 12.7855 5.903C13.2758 6.41445 13.4092 7.11137 13.1989 7.72237C13.1307 7.92149 13.2468 8.13425 13.4585 8.19835C13.6703 8.26245 13.8965 8.15335 13.9647 7.95559V7.95422C14.2606 7.09637 14.0735 6.11576 13.3831 5.39702Z" fill="#FF9933"/>
<path d="M12.3219 6.3903C11.973 6.02291 11.4585 5.88282 10.9847 5.98002C10.7907 6.01862 10.6673 6.2016 10.7079 6.38601C10.75 6.57042 10.9411 6.68764 11.1336 6.64761C11.3653 6.60044 11.618 6.66906 11.7879 6.84775C11.9579 7.02787 12.0045 7.27232 11.9308 7.48675C11.8707 7.66544 11.973 7.85843 12.1625 7.91704C12.352 7.97422 12.5536 7.87701 12.6152 7.69689C12.7642 7.25802 12.6709 6.75769 12.3219 6.3903Z" fill="#FF9933"/>
<path fill-rule="evenodd" clip-rule="evenodd" d="M6.3137 10.0248C6.68061 9.31457 7.63487 8.91215 8.47965 9.12254C9.35401 9.33857 9.80081 10.1251 9.44278 10.8904C9.08031 11.6712 8.03876 12.0892 7.15404 11.8167C6.30186 11.554 5.93939 10.7492 6.3137 10.0248ZM8.40128 10.2804C8.33915 10.3821 8.20155 10.4301 8.09503 10.3877C7.98851 10.3468 7.95596 10.2324 8.01662 10.1336C8.07876 10.0347 8.21043 9.98671 8.31547 10.0263C8.422 10.063 8.46046 10.1773 8.40128 10.2804ZM7.83459 10.9723C7.66297 11.2335 7.29458 11.3479 7.01792 11.2279C6.7457 11.1093 6.66433 10.8057 6.83594 10.5501C7.00608 10.2959 7.36116 10.183 7.63634 10.2931C7.91448 10.4075 8.00325 10.7082 7.83459 10.9723Z" fill="black"/>
</svg>
