<svg width="18" height="17" viewBox="0 0 18 17" fill="none" xmlns="http://www.w3.org/2000/svg">
<g clip-path="url(#clip0_82_9717)">
<path d="M17.1616 4.38135C17.0655 4.01969 16.8761 3.68961 16.6123 3.42415C16.3486 3.15869 16.0197 2.96717 15.6587 2.86874C14.3296 2.51135 9.01709 2.51135 9.01709 2.51135C9.01709 2.51135 3.70459 2.51135 2.3755 2.86874C2.01446 2.96717 1.6856 3.15869 1.42184 3.42415C1.15807 3.68961 0.968656 4.01969 0.872544 4.38135C0.51709 5.71624 0.51709 8.49999 0.51709 8.49999C0.51709 8.49999 0.51709 11.2837 0.872544 12.6186C0.968656 12.9803 1.15807 13.3104 1.42184 13.5758C1.6856 13.8413 2.01446 14.0328 2.3755 14.1312C3.70459 14.4886 9.01709 14.4886 9.01709 14.4886C9.01709 14.4886 14.3296 14.4886 15.6587 14.1312C16.0197 14.0328 16.3486 13.8413 16.6123 13.5758C16.8761 13.3104 17.0655 12.9803 17.1616 12.6186C17.5171 11.2837 17.5171 8.49999 17.5171 8.49999C17.5171 8.49999 17.5171 5.71624 17.1616 4.38135Z" fill="#FF0302"/>
<path d="M7.27832 11.0278V5.97223L11.7215 8.50001L7.27832 11.0278Z" fill="#FEFEFE"/>
</g>
<defs>
<clipPath id="clip0_82_9717">
<rect width="17" height="17" fill="white" transform="translate(0.5)"/>
</clipPath>
</defs>
</svg>
